<?xml version="1.0" encoding="utf-8"?>
<!-- Generator: Adobe Illustrator 24.1.1, SVG Export Plug-In . SVG Version: 6.00 Build 0)  -->
<svg version="1.1" id="Слой_1" xmlns="http://www.w3.org/2000/svg" xmlns:xlink="http://www.w3.org/1999/xlink" x="0px" y="0px"
	 viewBox="0 0 209 90.9" style="enable-background:new 0 0 209 90.9;" xml:space="preserve">
<style type="text/css">
	.st0{fill:#333333;}
	.st1{fill:#CC0000;}
</style>
<g>
	<path class="st0" d="M208.8,88.3l-13.5-19.7l12.4-17.9c0.2-0.2,0.2-0.4,0.2-0.7l0-0.4v-8.2c0-0.8-0.7-1.5-1.5-1.5h-86.1
		c0.4-0.1,0.7-0.2,1.1-0.4c2.8-1.2,4.9-3,6.4-5.4c1.5-2.4,2.4-5.5,2.5-9.2c0.1-1.7,0.1-3.1,0.1-4.4c0-1.3,0-2.8-0.1-4.5
		c-0.1-3.5-1-6.5-2.6-8.9c-1.6-2.4-3.8-4.2-6.6-5.5c-2.8-1.2-6.1-1.9-10-1.9H95c-0.4,0-0.8,0.1-1.1,0.4c-0.3,0.3-0.5,0.7-0.5,1.1
		v38.4c0,0.1,0,0.1,0,0.2h-3.9c0-0.1,0-0.2,0-0.3L75.9,1.8c-0.1-0.4-0.4-0.8-0.8-1.2c-0.4-0.4-1-0.6-1.7-0.6H62.6
		c-0.7,0-1.3,0.2-1.7,0.6c-0.4,0.4-0.7,0.8-0.8,1.2L46.6,39.8c0,0.1,0,0.2,0,0.3h-4.1c0-0.1,0-0.1,0-0.2V1.5c0-0.4-0.1-0.8-0.4-1.1
		C41.8,0.1,41.4,0,41,0h-7.9c-0.7,0-1.2,0.2-1.6,0.6c-0.4,0.4-0.6,0.7-0.7,0.8l-9.5,16.5L11.8,1.4c-0.1-0.2-0.4-0.4-0.7-0.8
		C10.7,0.2,10.2,0,9.5,0H1.6C1.2,0,0.8,0.1,0.5,0.4C0.2,0.7,0,1.1,0,1.5v38.4c0,0.1,0,0.2,0,0.3v8c0,0.8,0.7,1.5,1.5,1.5h13
		c-0.1,0-0.2,0.1-0.3,0.1c-2.6,1.1-4.6,2.6-6,4.6c-1.4,2-2.2,4.2-2.2,6.8c0,2.5,0.6,4.7,1.7,6.4c1.2,1.7,2.9,3.1,5.1,4.1
		c2.2,1,4.8,1.8,7.9,2.3c2.2,0.4,3.9,0.8,5.2,1.1c1.3,0.4,2.2,0.8,2.7,1.2s0.8,1,0.8,1.7c0,0.9-0.5,1.6-1.5,2
		c-1,0.5-2.4,0.7-4.2,0.7c-1,0-1.9-0.1-2.6-0.3c-0.8-0.2-1.4-0.5-1.8-0.9c-0.5-0.4-0.9-0.8-1.2-1.2c-0.4-0.3-0.7-0.6-1-0.7
		c-0.3-0.2-0.8-0.3-1.3-0.3H6.2c-0.4,0-0.7,0.1-0.9,0.4s-0.4,0.5-0.4,0.9c0.1,2.1,0.8,4.1,2.2,6c1.4,1.9,3.4,3.4,6.2,4.6
		c2.7,1.2,6.2,1.7,10.3,1.7c3.6,0,6.9-0.5,9.7-1.6c2.8-1.1,5-2.6,6.7-4.7c1.6-2,2.4-4.4,2.4-7.2c0-2.5-0.5-4.6-1.6-6.2
		c-1.1-1.7-2.8-3-5.1-4c-2.3-1-5.3-1.8-9.1-2.4c-2-0.4-3.5-0.8-4.6-1.1c-1.1-0.3-1.9-0.7-2.3-1.2C19.3,62.1,19,61.6,19,61
		c0-0.9,0.4-1.5,1.1-2c0.7-0.5,1.7-0.7,3.1-0.7c1.2,0,2.2,0.2,3,0.7c0.8,0.4,1.3,0.9,1.5,1.5c0.3,0.4,0.6,0.6,0.9,0.8
		c0.3,0.2,0.7,0.2,1.2,0.2h9.9c0.3,0,0.6-0.1,0.9-0.4s0.4-0.6,0.4-0.9c0-1.3-0.5-2.6-1.2-4c-0.8-1.4-1.9-2.7-3.4-3.9
		c-1.2-1-2.7-1.8-4.5-2.5H45c-0.1,0.2-0.1,0.4-0.1,0.6v7.9c0,0.4,0.1,0.8,0.4,1.1c0.3,0.3,0.7,0.4,1.1,0.4h10.2v28.9
		c0,0.4,0.1,0.8,0.4,1.1c0.3,0.3,0.7,0.4,1.1,0.4H68c0.4,0,0.8-0.1,1.1-0.4c0.3-0.3,0.4-0.7,0.4-1.1V59.8h10.2
		c0.4,0,0.8-0.1,1.1-0.4s0.4-0.7,0.4-1.1v-7.9c0-0.2,0-0.4-0.1-0.6h15.6c-0.2,0.3-0.4,0.6-0.5,0.9L82.8,88.6c0,0.1-0.1,0.3-0.1,0.4
		c0,0.4,0.1,0.7,0.4,0.9c0.2,0.3,0.5,0.4,0.9,0.4h9.1c0.7,0,1.2-0.2,1.5-0.5c0.3-0.3,0.5-0.6,0.6-0.9l1.8-5h14.3l1.8,5
		c0.1,0.3,0.3,0.6,0.7,0.9c0.3,0.3,0.8,0.5,1.5,0.5h9.1c0.4,0,0.7-0.1,0.9-0.4c0.3-0.3,0.4-0.6,0.4-0.9c0-0.2,0-0.3-0.1-0.4
		l-13.6-37.9c-0.1-0.3-0.3-0.6-0.5-0.9h26.9c-0.2,0.1-0.5,0.2-0.7,0.2c-2.8,1.2-5.1,3-6.7,5.4c-1.6,2.4-2.5,5.4-2.7,8.9
		c0,1.7-0.1,3.5-0.1,5.3s0,3.6,0.1,5.2c0.2,3.6,1,6.6,2.6,9c1.6,2.4,3.8,4.1,6.6,5.3c2.8,1.2,6.1,1.7,9.8,1.7c2.6,0,5-0.3,7.3-0.9
		c2.3-0.6,4.3-1.5,6.1-2.8s3.2-2.8,4.2-4.6c1-1.8,1.6-4,1.6-6.4c0-0.4-0.1-0.7-0.4-0.9s-0.6-0.4-0.9-0.4h-10c-0.6,0-1,0.1-1.3,0.3
		c-0.3,0.2-0.5,0.6-0.7,1.3c-0.5,1.6-1.2,2.7-2.2,3.4s-2.2,0.9-3.6,0.9c-1.7,0-3.1-0.5-4.1-1.4c-1-0.9-1.6-2.6-1.7-4.9
		c-0.1-3.4-0.1-6.7,0-10c0.1-2.3,0.6-4,1.7-4.9c1-0.9,2.4-1.4,4.1-1.4c1.4,0,2.6,0.3,3.6,0.9c1,0.6,1.7,1.7,2.3,3.4
		c0.2,0.6,0.4,1,0.7,1.2c0.3,0.2,0.7,0.4,1.3,0.4h10c0.4,0,0.7-0.1,0.9-0.4c0.3-0.3,0.4-0.6,0.4-0.9c0-2.4-0.6-4.6-1.6-6.4
		c-1-1.8-2.4-3.3-4.2-4.6c-1.3-0.9-2.7-1.6-4.2-2.2h15.5c-0.1,0.2-0.1,0.4-0.1,0.6v38.4c0,0.4,0.2,0.8,0.5,1.1
		c0.3,0.3,0.7,0.4,1.1,0.4h9.4c0.4,0,0.8-0.1,1.1-0.4c0.3-0.3,0.4-0.7,0.4-1.1V75.2l9.5,13.7c0.1,0.2,0.3,0.4,0.7,0.8
		c0.4,0.4,1,0.5,1.7,0.5h11.1c0.4,0,0.7-0.1,0.9-0.4c0.3-0.3,0.4-0.6,0.4-0.9C209,88.7,208.9,88.5,208.8,88.3z M106.2,10.1h4.7
		c2,0,3.5,0.5,4.7,1.5c1.2,1,1.8,2.6,1.9,4.7c0,1.1,0.1,2.1,0.1,3c0,0.9,0,1.8,0,2.7c0,0.9,0,1.9-0.1,3.1c0,1.5-0.3,2.7-0.8,3.6
		c-0.5,0.9-1.2,1.6-2.1,2c-0.9,0.4-2,0.7-3.3,0.7h-5V10.1z M12,40.1c0-0.1,0-0.1,0-0.2V20.7l5.3,9.4c0.2,0.3,0.5,0.6,0.8,0.9
		c0.3,0.3,0.7,0.5,1.3,0.5h3.6c0.6,0,1-0.2,1.4-0.5c0.3-0.3,0.6-0.6,0.8-0.9l5.3-9.4v19.2c0,0.1,0,0.1,0,0.2H12z M68,11.8l4.4,13.3
		h-8.8L68,11.8z M59,40.1l1.8-5h14.3l1.8,5H59z M99.8,73.9l4.4-13.3l4.4,13.3H99.8z M193.5,50.1l-8.8,12.7V50.4c0-0.2,0-0.4-0.1-0.6
		h9.2C193.7,49.9,193.6,50,193.5,50.1z"/>
	<g>
		<path class="st1" d="M18.7,90.9c-4.1,0-7.6-0.6-10.3-1.7c-2.7-1.2-4.8-2.7-6.2-4.6c-1.4-1.9-2.1-3.9-2.2-6c0-0.4,0.1-0.7,0.4-0.9
			s0.5-0.4,0.9-0.4h9.4c0.6,0,1,0.1,1.3,0.3c0.3,0.2,0.7,0.4,1,0.7c0.4,0.4,0.8,0.8,1.2,1.2c0.5,0.4,1.1,0.7,1.8,0.9
			c0.8,0.2,1.6,0.3,2.6,0.3c1.8,0,3.2-0.2,4.2-0.7c1-0.5,1.5-1.2,1.5-2c0-0.7-0.3-1.2-0.8-1.7s-1.4-0.8-2.7-1.2
			c-1.3-0.4-3-0.7-5.2-1.1c-3-0.5-5.7-1.3-7.9-2.3c-2.2-1-3.9-2.4-5.1-4.1C1.6,66,1,63.8,1,61.3c0-2.6,0.7-4.8,2.2-6.8
			c1.4-2,3.5-3.5,6-4.6c2.6-1.1,5.6-1.7,9-1.7c2.8,0,5.4,0.4,7.6,1.1c2.2,0.8,4,1.7,5.5,2.9c1.5,1.2,2.6,2.5,3.4,3.9
			c0.8,1.4,1.2,2.7,1.2,4c0,0.4-0.1,0.7-0.4,0.9s-0.5,0.4-0.9,0.4h-9.9c-0.5,0-0.9-0.1-1.2-0.2c-0.3-0.2-0.6-0.4-0.9-0.8
			c-0.2-0.6-0.7-1-1.5-1.5c-0.8-0.4-1.8-0.7-3-0.7c-1.3,0-2.4,0.2-3.1,0.7c-0.7,0.5-1.1,1.1-1.1,2c0,0.6,0.2,1.1,0.7,1.5
			c0.4,0.4,1.2,0.8,2.3,1.2c1.1,0.3,2.6,0.7,4.6,1.1c3.8,0.6,6.8,1.3,9.1,2.4c2.3,1,4,2.4,5.1,4c1.1,1.7,1.6,3.7,1.6,6.2
			c0,2.8-0.8,5.2-2.4,7.2c-1.6,2-3.8,3.6-6.7,4.7C25.5,90.3,22.3,90.9,18.7,90.9z"/>
		<path class="st1" d="M53.3,90.3c-0.4,0-0.8-0.1-1.1-0.4c-0.3-0.3-0.4-0.7-0.4-1.1V59.8H41.5c-0.4,0-0.8-0.1-1.1-0.4
			c-0.3-0.3-0.4-0.7-0.4-1.1v-7.9c0-0.4,0.1-0.8,0.4-1.1c0.3-0.3,0.7-0.4,1.1-0.4h33.3c0.4,0,0.8,0.1,1.1,0.4
			c0.3,0.3,0.4,0.7,0.4,1.1v7.9c0,0.4-0.1,0.8-0.4,1.1s-0.7,0.4-1.1,0.4H64.6v28.9c0,0.4-0.1,0.8-0.4,1.1c-0.3,0.3-0.7,0.4-1.1,0.4
			H53.3z"/>
		<path class="st1" d="M79,90.3c-0.4,0-0.7-0.1-0.9-0.4c-0.2-0.3-0.4-0.6-0.4-0.9c0-0.2,0-0.3,0.1-0.4l13.5-37.9
			c0.2-0.4,0.4-0.8,0.8-1.2c0.4-0.4,0.9-0.6,1.7-0.6h10.8c0.8,0,1.3,0.2,1.7,0.6c0.4,0.4,0.7,0.8,0.8,1.2l13.6,37.9
			c0,0.1,0.1,0.3,0.1,0.4c0,0.4-0.1,0.7-0.4,0.9c-0.3,0.3-0.6,0.4-0.9,0.4h-9.1c-0.7,0-1.2-0.2-1.5-0.5c-0.3-0.3-0.5-0.6-0.7-0.9
			l-1.8-5H92.1l-1.8,5c-0.1,0.3-0.3,0.6-0.6,0.9c-0.3,0.3-0.8,0.5-1.5,0.5H79z M94.8,73.9h8.8l-4.4-13.3L94.8,73.9z"/>
		<path class="st1" d="M142.6,90.9c-3.8,0-7-0.6-9.8-1.7c-2.8-1.2-5-2.9-6.6-5.3c-1.6-2.4-2.5-5.4-2.6-9c0-1.6-0.1-3.4-0.1-5.2
			s0-3.6,0.1-5.3c0.2-3.6,1.1-6.5,2.7-8.9c1.6-2.4,3.9-4.2,6.7-5.4c2.8-1.2,6.1-1.8,9.7-1.8c2.6,0,5,0.3,7.3,0.9
			c2.3,0.6,4.3,1.5,6.1,2.8s3.2,2.8,4.2,4.6c1,1.8,1.6,4,1.6,6.4c0,0.4-0.1,0.7-0.4,0.9c-0.3,0.3-0.6,0.4-0.9,0.4h-10
			c-0.6,0-1-0.1-1.3-0.4c-0.3-0.2-0.5-0.7-0.7-1.2c-0.5-1.7-1.3-2.8-2.3-3.4c-1-0.6-2.2-0.9-3.6-0.9c-1.7,0-3.1,0.5-4.1,1.4
			c-1,0.9-1.6,2.6-1.7,4.9c-0.1,3.2-0.1,6.6,0,10c0.1,2.3,0.6,4,1.7,4.9c1,0.9,2.4,1.4,4.1,1.4c1.4,0,2.6-0.3,3.6-0.9
			s1.7-1.8,2.2-3.4c0.2-0.6,0.4-1.1,0.7-1.3c0.3-0.2,0.7-0.3,1.3-0.3h10c0.4,0,0.7,0.1,0.9,0.4s0.4,0.5,0.4,0.9
			c0,2.4-0.6,4.6-1.6,6.4c-1,1.8-2.4,3.4-4.2,4.6s-3.8,2.2-6.1,2.8C147.6,90.6,145.2,90.9,142.6,90.9z"/>
		<path class="st1" d="M168.8,90.3c-0.4,0-0.8-0.1-1.1-0.4c-0.3-0.3-0.5-0.7-0.5-1.1V50.4c0-0.4,0.2-0.8,0.5-1.1
			c0.3-0.3,0.7-0.4,1.1-0.4h9.4c0.4,0,0.8,0.1,1.1,0.4c0.3,0.3,0.4,0.7,0.4,1.1v12.4l8.8-12.7c0.2-0.3,0.5-0.6,0.8-0.8
			c0.4-0.3,0.8-0.4,1.5-0.4h10.8c0.4,0,0.7,0.1,0.9,0.4c0.3,0.3,0.4,0.6,0.4,0.9c0,0.2-0.1,0.5-0.2,0.7l-12.4,17.9l13.5,19.7
			c0.2,0.2,0.2,0.4,0.2,0.7c0,0.4-0.1,0.7-0.4,0.9c-0.3,0.3-0.6,0.4-0.9,0.4h-11.1c-0.8,0-1.4-0.2-1.7-0.5c-0.4-0.4-0.6-0.6-0.7-0.8
			l-9.5-13.7v13.5c0,0.4-0.1,0.8-0.4,1.1c-0.3,0.3-0.7,0.4-1.1,0.4H168.8z"/>
	</g>
	<g>
		<path class="st1" d="M6.6,41.5c-0.4,0-0.8-0.1-1.1-0.4C5.1,40.7,5,40.4,5,39.9V1.5c0-0.4,0.2-0.8,0.5-1.1C5.7,0.1,6.1,0,6.6,0h7.9
			c0.7,0,1.2,0.2,1.6,0.6c0.4,0.4,0.6,0.7,0.7,0.8l9.5,16.5l9.5-16.5c0.1-0.2,0.4-0.4,0.7-0.8C36.8,0.2,37.3,0,38,0h7.9
			c0.4,0,0.8,0.1,1.1,0.4c0.3,0.3,0.4,0.7,0.4,1.1v38.4c0,0.4-0.1,0.8-0.4,1.1s-0.7,0.4-1.1,0.4H37c-0.4,0-0.8-0.1-1.1-0.4
			c-0.3-0.3-0.4-0.7-0.4-1.1V20.7l-5.3,9.4c-0.2,0.3-0.5,0.6-0.8,0.9c-0.3,0.3-0.8,0.5-1.4,0.5h-3.6c-0.6,0-1-0.2-1.3-0.5
			c-0.3-0.3-0.6-0.6-0.8-0.9L17,20.7v19.2c0,0.4-0.1,0.8-0.4,1.1c-0.3,0.3-0.7,0.4-1.1,0.4H6.6z"/>
		<path class="st1" d="M52.7,41.5c-0.4,0-0.7-0.1-0.9-0.4c-0.2-0.3-0.4-0.6-0.4-0.9c0-0.2,0-0.3,0.1-0.4L65,1.8
			c0.2-0.4,0.4-0.8,0.8-1.2C66.3,0.2,66.8,0,67.5,0h10.8c0.8,0,1.3,0.2,1.7,0.6c0.4,0.4,0.7,0.8,0.8,1.2l13.6,37.9
			c0,0.1,0.1,0.3,0.1,0.4c0,0.4-0.1,0.7-0.4,0.9c-0.3,0.3-0.6,0.4-0.9,0.4H84c-0.7,0-1.2-0.2-1.5-0.5c-0.3-0.3-0.5-0.6-0.7-0.9
			l-1.8-5H65.8l-1.8,5c-0.1,0.3-0.3,0.6-0.6,0.9c-0.3,0.3-0.8,0.5-1.5,0.5H52.7z M68.5,25.1h8.8l-4.4-13.3L68.5,25.1z"/>
		<path class="st1" d="M99.9,41.5c-0.4,0-0.8-0.1-1.1-0.4c-0.3-0.3-0.5-0.7-0.5-1.1V1.5c0-0.4,0.2-0.8,0.5-1.1
			C99.2,0.1,99.5,0,99.9,0h16.2c3.8,0,7.1,0.6,10,1.9c2.8,1.2,5,3.1,6.6,5.5c1.6,2.4,2.5,5.4,2.6,8.9c0.1,1.7,0.1,3.2,0.1,4.5
			c0,1.3,0,2.8-0.1,4.4c-0.2,3.7-1,6.8-2.5,9.2c-1.5,2.4-3.7,4.2-6.4,5.4c-2.8,1.2-6.1,1.7-10,1.7H99.9z M111.1,31.4h5
			c1.3,0,2.4-0.2,3.3-0.7c0.9-0.4,1.6-1.1,2.1-2c0.5-0.9,0.8-2.1,0.8-3.6c0-1.1,0.1-2.2,0.1-3.1c0-0.9,0-1.8,0-2.7
			c0-0.9,0-1.9-0.1-3c-0.1-2.2-0.7-3.8-1.9-4.7c-1.2-1-2.7-1.5-4.7-1.5h-4.7V31.4z"/>
	</g>
</g>
</svg>
