<?xml version="1.0" encoding="utf-8"?>
<!-- Generator: Adobe Illustrator 24.1.1, SVG Export Plug-In . SVG Version: 6.00 Build 0)  -->
<svg version="1.1" id="Слой_1" xmlns="http://www.w3.org/2000/svg" xmlns:xlink="http://www.w3.org/1999/xlink" x="0px" y="0px"
	 viewBox="0 0 251 251" style="enable-background:new 0 0 251 251;" xml:space="preserve">
<style type="text/css">
	.st0{fill:#333333;stroke:#000000;stroke-miterlimit:10;}
	.st1{fill:#CC0000;}
	.st2{fill:#FFFFFF;}
</style>
<circle class="st0" cx="125.1" cy="125.7" r="125"/>
<g>
	<path class="st1" d="M229.4,168.7L215.9,149l12.4-17.9c0.2-0.2,0.2-0.4,0.2-0.7V130v-8.2c0-0.8-0.7-1.5-1.5-1.5h-86.1
		c0.4-0.1,0.7-0.2,1.1-0.4c2.8-1.2,4.9-3,6.4-5.4s2.4-5.5,2.5-9.2c0.1-1.7,0.1-3.1,0.1-4.4c0-1.3,0-2.8-0.1-4.5
		c-0.1-3.5-1-6.5-2.6-8.9c-1.6-2.4-3.8-4.2-6.6-5.5c-2.8-1.2-6.1-1.9-10-1.9h-16.1c-0.4,0-0.8,0.1-1.1,0.4c-0.3,0.3-0.5,0.7-0.5,1.1
		V120c0,0.1,0,0.1,0,0.2h-3.9c0-0.1,0-0.2,0-0.3L96.5,82.2c-0.1-0.4-0.4-0.8-0.8-1.2s-1-0.6-1.7-0.6H83.2c-0.7,0-1.3,0.2-1.7,0.6
		s-0.7,0.8-0.8,1.2l-13.5,38c0,0.1,0,0.2,0,0.3h-4.1c0-0.1,0-0.1,0-0.2V81.9c0-0.4-0.1-0.8-0.4-1.1c-0.3-0.3-0.7-0.4-1.1-0.4h-7.9
		c-0.7,0-1.2,0.2-1.6,0.6c-0.4,0.4-0.6,0.7-0.7,0.8l-9.5,16.5l-9.5-16.5c-0.1-0.2-0.4-0.4-0.7-0.8c-0.4-0.4-0.9-0.6-1.6-0.6h-7.9
		c-0.4,0-0.8,0.1-1.1,0.4c-0.3,0.3-0.5,0.7-0.5,1.1v38.4c0,0.1,0,0.2,0,0.3v8c0,0.8,0.7,1.5,1.5,1.5h13c-0.1,0-0.2,0.1-0.3,0.1
		c-2.6,1.1-4.6,2.6-6,4.6c-1.4,2-2.2,4.2-2.2,6.8c0,2.5,0.6,4.7,1.7,6.4c1.2,1.7,2.9,3.1,5.1,4.1c2.2,1,4.8,1.8,7.9,2.3
		c2.2,0.4,3.9,0.8,5.2,1.1c1.3,0.4,2.2,0.8,2.7,1.2s0.8,1,0.8,1.7c0,0.9-0.5,1.6-1.5,2c-1,0.5-2.4,0.7-4.2,0.7c-1,0-1.9-0.1-2.6-0.3
		c-0.8-0.2-1.4-0.5-1.8-0.9c-0.5-0.4-0.9-0.8-1.2-1.2c-0.4-0.3-0.7-0.6-1-0.7c-0.3-0.2-0.8-0.3-1.3-0.3h-9.6c-0.4,0-0.7,0.1-0.9,0.4
		s-0.4,0.5-0.4,0.9c0.1,2.1,0.8,4.1,2.2,6c1.4,1.9,3.4,3.4,6.2,4.6c2.7,1.2,6.2,1.7,10.3,1.7c3.6,0,6.9-0.5,9.7-1.6
		c2.8-1.1,5-2.6,6.7-4.7c1.6-2,2.4-4.4,2.4-7.2c0-2.5-0.5-4.6-1.6-6.2c-1.1-1.7-2.8-3-5.1-4s-5.3-1.8-9.1-2.4
		c-2-0.4-3.5-0.8-4.6-1.1c-1.1-0.3-1.9-0.7-2.3-1.2c-0.4-0.4-0.7-0.9-0.7-1.5c0-0.9,0.4-1.5,1.1-2s1.7-0.7,3.1-0.7
		c1.2,0,2.2,0.2,3,0.7c0.8,0.4,1.3,0.9,1.5,1.5c0.3,0.4,0.6,0.6,0.9,0.8s0.7,0.2,1.2,0.2h9.9c0.3,0,0.6-0.1,0.9-0.4s0.4-0.6,0.4-0.9
		c0-1.3-0.5-2.6-1.2-4c-0.8-1.4-1.9-2.7-3.4-3.9c-1.2-1-2.7-1.8-4.5-2.5h13.1c-0.1,0.2-0.1,0.4-0.1,0.6v7.9c0,0.4,0.1,0.8,0.4,1.1
		c0.3,0.3,0.7,0.4,1.1,0.4h10.2v28.9c0,0.4,0.1,0.8,0.4,1.1c0.3,0.3,0.7,0.4,1.1,0.4h9.9c0.4,0,0.8-0.1,1.1-0.4
		c0.3-0.3,0.4-0.7,0.4-1.1v-28.9h10.2c0.4,0,0.8-0.1,1.1-0.4s0.4-0.7,0.4-1.1v-7.9c0-0.2,0-0.4-0.1-0.6h15.6
		c-0.2,0.3-0.4,0.6-0.5,0.9L103.4,169c0,0.1-0.1,0.3-0.1,0.4c0,0.4,0.1,0.7,0.4,0.9c0.2,0.3,0.5,0.4,0.9,0.4h9.1
		c0.7,0,1.2-0.2,1.5-0.5s0.5-0.6,0.6-0.9l1.8-5h14.3l1.8,5c0.1,0.3,0.3,0.6,0.7,0.9c0.3,0.3,0.8,0.5,1.5,0.5h9.1
		c0.4,0,0.7-0.1,0.9-0.4c0.3-0.3,0.4-0.6,0.4-0.9c0-0.2,0-0.3-0.1-0.4l-13.6-37.9c-0.1-0.3-0.3-0.6-0.5-0.9H159
		c-0.2,0.1-0.5,0.2-0.7,0.2c-2.8,1.2-5.1,3-6.7,5.4c-1.6,2.4-2.5,5.4-2.7,8.9c0,1.7-0.1,3.5-0.1,5.3s0,3.6,0.1,5.2
		c0.2,3.6,1,6.6,2.6,9c1.6,2.4,3.8,4.1,6.6,5.3c2.8,1.2,6.1,1.7,9.8,1.7c2.6,0,5-0.3,7.3-0.9c2.3-0.6,4.3-1.5,6.1-2.8
		s3.2-2.8,4.2-4.6c1-1.8,1.6-4,1.6-6.4c0-0.4-0.1-0.7-0.4-0.9c-0.3-0.2-0.6-0.4-0.9-0.4h-10c-0.6,0-1,0.1-1.3,0.3s-0.5,0.6-0.7,1.3
		c-0.5,1.6-1.2,2.7-2.2,3.4c-1,0.7-2.2,0.9-3.6,0.9c-1.7,0-3.1-0.5-4.1-1.4c-1-0.9-1.6-2.6-1.7-4.9c-0.1-3.4-0.1-6.7,0-10
		c0.1-2.3,0.6-4,1.7-4.9c1-0.9,2.4-1.4,4.1-1.4c1.4,0,2.6,0.3,3.6,0.9c1,0.6,1.7,1.7,2.3,3.4c0.2,0.6,0.4,1,0.7,1.2
		c0.3,0.2,0.7,0.4,1.3,0.4h10c0.4,0,0.7-0.1,0.9-0.4c0.3-0.3,0.4-0.6,0.4-0.9c0-2.4-0.6-4.6-1.6-6.4s-2.4-3.3-4.2-4.6
		c-1.3-0.9-2.7-1.6-4.2-2.2h15.5c-0.1,0.2-0.1,0.4-0.1,0.6v38.4c0,0.4,0.2,0.8,0.5,1.1c0.3,0.3,0.7,0.4,1.1,0.4h9.4
		c0.4,0,0.8-0.1,1.1-0.4s0.4-0.7,0.4-1.1v-13.3l9.5,13.7c0.1,0.2,0.3,0.4,0.7,0.8c0.4,0.4,1,0.5,1.7,0.5h11.1c0.4,0,0.7-0.1,0.9-0.4
		c0.3-0.3,0.4-0.6,0.4-0.9C229.6,169.1,229.5,168.9,229.4,168.7z M126.8,90.5h4.7c2,0,3.5,0.5,4.7,1.5s1.8,2.6,1.9,4.7
		c0,1.1,0.1,2.1,0.1,3s0,1.8,0,2.7c0,0.9,0,1.9-0.1,3.1c0,1.5-0.3,2.7-0.8,3.6s-1.2,1.6-2.1,2c-0.9,0.4-2,0.7-3.3,0.7h-5L126.8,90.5
		L126.8,90.5z M32.6,120.5c0-0.1,0-0.1,0-0.2v-19.2l5.3,9.4c0.2,0.3,0.5,0.6,0.8,0.9c0.3,0.3,0.7,0.5,1.3,0.5h3.6
		c0.6,0,1-0.2,1.4-0.5c0.3-0.3,0.6-0.6,0.8-0.9l5.3-9.4v19.2c0,0.1,0,0.1,0,0.2C51.1,120.5,32.6,120.5,32.6,120.5z M88.6,92.2
		l4.4,13.3h-8.8L88.6,92.2z M79.6,120.5l1.8-5h14.3l1.8,5H79.6z M120.4,154.3l4.4-13.3l4.4,13.3H120.4z M214.1,130.5l-8.8,12.7
		v-12.4c0-0.2,0-0.4-0.1-0.6h9.2C214.3,130.3,214.2,130.4,214.1,130.5z"/>
	<g>
		<path class="st2" d="M39.3,171.3c-4.1,0-7.6-0.6-10.3-1.7c-2.7-1.2-4.8-2.7-6.2-4.6c-1.4-1.9-2.1-3.9-2.2-6c0-0.4,0.1-0.7,0.4-0.9
			c0.3-0.2,0.5-0.4,0.9-0.4h9.4c0.6,0,1,0.1,1.3,0.3c0.3,0.2,0.7,0.4,1,0.7c0.4,0.4,0.8,0.8,1.2,1.2c0.5,0.4,1.1,0.7,1.8,0.9
			c0.8,0.2,1.6,0.3,2.6,0.3c1.8,0,3.2-0.2,4.2-0.7c1-0.5,1.5-1.2,1.5-2c0-0.7-0.3-1.2-0.8-1.7s-1.4-0.8-2.7-1.2
			c-1.3-0.4-3-0.7-5.2-1.1c-3-0.5-5.7-1.3-7.9-2.3s-3.9-2.4-5.1-4.1c-1-1.6-1.6-3.8-1.6-6.3c0-2.6,0.7-4.8,2.2-6.8
			c1.4-2,3.5-3.5,6-4.6c2.6-1.1,5.6-1.7,9-1.7c2.8,0,5.4,0.4,7.6,1.1c2.2,0.8,4,1.7,5.5,2.9c1.5,1.2,2.6,2.5,3.4,3.9
			c0.8,1.4,1.2,2.7,1.2,4c0,0.4-0.1,0.7-0.4,0.9c-0.3,0.2-0.5,0.4-0.9,0.4h-9.9c-0.5,0-0.9-0.1-1.2-0.2c-0.3-0.2-0.6-0.4-0.9-0.8
			c-0.2-0.6-0.7-1-1.5-1.5c-0.8-0.4-1.8-0.7-3-0.7c-1.3,0-2.4,0.2-3.1,0.7s-1.1,1.1-1.1,2c0,0.6,0.2,1.1,0.7,1.5
			c0.4,0.4,1.2,0.8,2.3,1.2c1.1,0.3,2.6,0.7,4.6,1.1c3.8,0.6,6.8,1.3,9.1,2.4c2.3,1,4,2.4,5.1,4c1.1,1.7,1.6,3.7,1.6,6.2
			c0,2.8-0.8,5.2-2.4,7.2c-1.6,2-3.8,3.6-6.7,4.7C46.1,170.7,42.9,171.3,39.3,171.3z"/>
		<path class="st2" d="M73.9,170.7c-0.4,0-0.8-0.1-1.1-0.4c-0.3-0.3-0.4-0.7-0.4-1.1v-29H62.1c-0.4,0-0.8-0.1-1.1-0.4
			s-0.4-0.7-0.4-1.1v-7.9c0-0.4,0.1-0.8,0.4-1.1c0.3-0.3,0.7-0.4,1.1-0.4h33.3c0.4,0,0.8,0.1,1.1,0.4c0.3,0.3,0.4,0.7,0.4,1.1v7.9
			c0,0.4-0.1,0.8-0.4,1.1c-0.3,0.3-0.7,0.4-1.1,0.4H85.2v28.9c0,0.4-0.1,0.8-0.4,1.1c-0.3,0.3-0.7,0.4-1.1,0.4h-9.8V170.7z"/>
		<path class="st2" d="M99.6,170.7c-0.4,0-0.7-0.1-0.9-0.4c-0.2-0.3-0.4-0.6-0.4-0.9c0-0.2,0-0.3,0.1-0.4l13.5-37.9
			c0.2-0.4,0.4-0.8,0.8-1.2c0.4-0.4,0.9-0.6,1.7-0.6h10.8c0.8,0,1.3,0.2,1.7,0.6c0.4,0.4,0.7,0.8,0.8,1.2l13.6,37.9
			c0,0.1,0.1,0.3,0.1,0.4c0,0.4-0.1,0.7-0.4,0.9c-0.3,0.3-0.6,0.4-0.9,0.4H131c-0.7,0-1.2-0.2-1.5-0.5s-0.5-0.6-0.7-0.9l-1.8-5
			h-14.3l-1.8,5c-0.1,0.3-0.3,0.6-0.6,0.9c-0.3,0.3-0.8,0.5-1.5,0.5H99.6z M115.4,154.3h8.8l-4.4-13.3L115.4,154.3z"/>
		<path class="st2" d="M163.2,171.3c-3.8,0-7-0.6-9.8-1.7c-2.8-1.2-5-2.9-6.6-5.3c-1.6-2.4-2.5-5.4-2.6-9c0-1.6-0.1-3.4-0.1-5.2
			c0-1.8,0-3.6,0.1-5.3c0.2-3.6,1.1-6.5,2.7-8.9c1.6-2.4,3.9-4.2,6.7-5.4s6.1-1.8,9.7-1.8c2.6,0,5,0.3,7.3,0.9
			c2.3,0.6,4.3,1.5,6.1,2.8c1.8,1.3,3.2,2.8,4.2,4.6s1.6,4,1.6,6.4c0,0.4-0.1,0.7-0.4,0.9c-0.3,0.3-0.6,0.4-0.9,0.4h-10
			c-0.6,0-1-0.1-1.3-0.4c-0.3-0.2-0.5-0.7-0.7-1.2c-0.5-1.7-1.3-2.8-2.3-3.4c-1-0.6-2.2-0.9-3.6-0.9c-1.7,0-3.1,0.5-4.1,1.4
			c-1,0.9-1.6,2.6-1.7,4.9c-0.1,3.2-0.1,6.6,0,10c0.1,2.3,0.6,4,1.7,4.9c1,0.9,2.4,1.4,4.1,1.4c1.4,0,2.6-0.3,3.6-0.9
			c1-0.6,1.7-1.8,2.2-3.4c0.2-0.6,0.4-1.1,0.7-1.3c0.3-0.2,0.7-0.3,1.3-0.3h10c0.4,0,0.7,0.1,0.9,0.4s0.4,0.5,0.4,0.9
			c0,2.4-0.6,4.6-1.6,6.4s-2.4,3.4-4.2,4.6s-3.8,2.2-6.1,2.8C168.2,171,165.8,171.3,163.2,171.3z"/>
		<path class="st2" d="M189.4,170.7c-0.4,0-0.8-0.1-1.1-0.4s-0.5-0.7-0.5-1.1v-38.4c0-0.4,0.2-0.8,0.5-1.1c0.3-0.3,0.7-0.4,1.1-0.4
			h9.4c0.4,0,0.8,0.1,1.1,0.4s0.4,0.7,0.4,1.1v12.4l8.8-12.7c0.2-0.3,0.5-0.6,0.8-0.8c0.4-0.3,0.8-0.4,1.5-0.4h10.8
			c0.4,0,0.7,0.1,0.9,0.4c0.3,0.3,0.4,0.6,0.4,0.9c0,0.2-0.1,0.5-0.2,0.7l-12.4,17.9l13.5,19.7c0.2,0.2,0.2,0.4,0.2,0.7
			c0,0.4-0.1,0.7-0.4,0.9c-0.3,0.3-0.6,0.4-0.9,0.4h-11.1c-0.8,0-1.4-0.2-1.7-0.5c-0.4-0.4-0.6-0.6-0.7-0.8l-9.5-13.7v13.5
			c0,0.4-0.1,0.8-0.4,1.1c-0.3,0.3-0.7,0.4-1.1,0.4h-9.4V170.7z"/>
	</g>
	<g>
		<path class="st2" d="M27.2,121.9c-0.4,0-0.8-0.1-1.1-0.4c-0.4-0.4-0.5-0.7-0.5-1.2V81.9c0-0.4,0.2-0.8,0.5-1.1
			c0.2-0.3,0.6-0.4,1.1-0.4h7.9c0.7,0,1.2,0.2,1.6,0.6c0.4,0.4,0.6,0.7,0.7,0.8l9.5,16.5l9.5-16.5c0.1-0.2,0.4-0.4,0.7-0.8
			c0.3-0.4,0.8-0.6,1.5-0.6h7.9c0.4,0,0.8,0.1,1.1,0.4c0.3,0.3,0.4,0.7,0.4,1.1v38.4c0,0.4-0.1,0.8-0.4,1.1
			c-0.3,0.3-0.7,0.4-1.1,0.4h-8.9c-0.4,0-0.8-0.1-1.1-0.4s-0.4-0.7-0.4-1.1v-19.2l-5.3,9.4c-0.2,0.3-0.5,0.6-0.8,0.9
			c-0.3,0.3-0.8,0.5-1.4,0.5H45c-0.6,0-1-0.2-1.3-0.5c-0.3-0.3-0.6-0.6-0.8-0.9l-5.3-9.4v19.2c0,0.4-0.1,0.8-0.4,1.1
			c-0.3,0.3-0.7,0.4-1.1,0.4L27.2,121.9L27.2,121.9z"/>
		<path class="st2" d="M73.3,121.9c-0.4,0-0.7-0.1-0.9-0.4c-0.2-0.3-0.4-0.6-0.4-0.9c0-0.2,0-0.3,0.1-0.4l13.5-38
			c0.2-0.4,0.4-0.8,0.8-1.2c0.5-0.4,1-0.6,1.7-0.6h10.8c0.8,0,1.3,0.2,1.7,0.6c0.4,0.4,0.7,0.8,0.8,1.2l13.6,37.9
			c0,0.1,0.1,0.3,0.1,0.4c0,0.4-0.1,0.7-0.4,0.9c-0.3,0.3-0.6,0.4-0.9,0.4h-9.2c-0.7,0-1.2-0.2-1.5-0.5c-0.3-0.3-0.5-0.6-0.7-0.9
			l-1.8-5H86.4l-1.8,5c-0.1,0.3-0.3,0.6-0.6,0.9c-0.3,0.3-0.8,0.5-1.5,0.5L73.3,121.9L73.3,121.9z M89.1,105.5h8.8l-4.4-13.3
			L89.1,105.5z"/>
		<path class="st2" d="M120.5,121.9c-0.4,0-0.8-0.1-1.1-0.4c-0.3-0.3-0.5-0.7-0.5-1.1V81.9c0-0.4,0.2-0.8,0.5-1.1
			c0.4-0.3,0.7-0.4,1.1-0.4h16.2c3.8,0,7.1,0.6,10,1.9c2.8,1.2,5,3.1,6.6,5.5c1.6,2.4,2.5,5.4,2.6,8.9c0.1,1.7,0.1,3.2,0.1,4.5
			c0,1.3,0,2.8-0.1,4.4c-0.2,3.7-1,6.8-2.5,9.2c-1.5,2.4-3.7,4.2-6.4,5.4c-2.8,1.2-6.1,1.7-10,1.7H120.5z M131.7,111.8h5
			c1.3,0,2.4-0.2,3.3-0.7c0.9-0.4,1.6-1.1,2.1-2s0.8-2.1,0.8-3.6c0-1.1,0.1-2.2,0.1-3.1c0-0.9,0-1.8,0-2.7s0-1.9-0.1-3
			c-0.1-2.2-0.7-3.8-1.9-4.7c-1.2-1-2.7-1.5-4.7-1.5h-4.7L131.7,111.8L131.7,111.8z"/>
	</g>
</g>
</svg>
